# xmcd
#
# Track frame offsets:
# 150
# 19111
# 43686
# 65021
# 86157
# 110760
# 139953
# 160428
# 182281
# 196771
# 213852
#
# Disc length: 3162 seconds
#
#
# Revision: 0
# Processed by: cddbd v1.5.2PL0 Copyright (c) Steve Scherf et al.
# Submitted via: FreeRIP 2.945 
#
DISCID=9a0c580b
DTITLE=Big Walter Smith and The Groove Merchants - Royal Blue Cadillac
DYEAR=2010
DGENRE=Blues
TTITLE0=Royal blue cadillac
TTITLE1=Never make a move too soon
TTITLE2=Money
TTITLE3=Mess Around
TTITLE4=I ain't drunk
TTITLE5=Stand by me
TTITLE6=Today I started loving you again
TTITLE7=Something you got
TTITLE8=Messin' with the kid
TTITLE9=Act like you love me
TTITLE10=Mardi Gras New Orleans
EXTD=
EXTT0=
EXTT1=
EXTT2=
EXTT3=
EXTT4=
EXTT5=
EXTT6=
EXTT7=
EXTT8=
EXTT9=
EXTT10=
PLAYORDER=
